<?xml version="1.0" standalone="no"?>
<!DOCTYPE svg PUBLIC "-//W3C//DTD SVG 20010904//EN"
 "http://www.w3.org/TR/2001/REC-SVG-20010904/DTD/svg10.dtd">
<svg version="1.0" xmlns="http://www.w3.org/2000/svg"
 width="1920.000000pt" height="896.000000pt" viewBox="0 0 1920.000000 896.000000"
 preserveAspectRatio="xMidYMid meet">
<metadata>
Created by potrace 1.16, written by Peter Selinger 2001-2019
</metadata>
<g transform="translate(0.000000,896.000000) scale(0.100000,-0.100000)"
fill="#000000" stroke="none">
<path d="M0 4480 l0 -4480 9600 0 9600 0 0 4480 0 4480 -9600 0 -9600 0 0
-4480z m18575 3874 c13 -5 15 -380 15 -3300 0 -3265 0 -3294 -20 -3294 -17 0
-20 9 -23 78 -2 42 -3 6 -2 -80 2 -90 -1 -158 -6 -158 -5 0 -10 1345 -10 3323
-1 1827 -2 3330 -3 3340 -1 17 -104 18 -2636 19 -1449 0 -3373 3 -4275 7 -902
4 -1417 9 -1145 11 403 3 461 5 310 11 -246 9 -256 12 -60 19 118 4 29 7 -315
10 -291 3 103 7 1000 10 2206 8 7153 10 7170 4z m-11675 -520 c0 -8 7 -22 15
-31 9 -9 13 -23 10 -34 -4 -10 -2 -19 3 -19 4 0 25 -33 44 -72 80 -163 153
-308 295 -588 289 -568 396 -871 444 -1250 20 -155 21 -334 4 -485 -10 -88
-49 -286 -71 -358 -14 -45 -30 -98 -36 -117 -27 -97 -74 -196 -107 -225 -19
-16 -32 -24 -27 -17 4 6 2 12 -3 12 -6 0 -11 -8 -12 -17 0 -11 -3 -13 -6 -5
-2 6 -9 10 -13 7 -18 -11 -134 59 -186 113 -17 17 -34 32 -37 32 -12 0 -109
109 -139 156 -17 27 -45 72 -63 99 -18 28 -45 74 -60 103 -15 28 -30 52 -34
52 -4 0 -7 10 -8 21 -1 12 -11 31 -21 43 -11 11 -22 30 -25 41 -14 48 -54 155
-60 162 -4 3 -7 19 -7 35 0 15 -4 28 -8 28 -5 0 -15 19 -23 42 -8 26 -35 63
-75 102 -57 57 -93 102 -120 151 -60 106 -103 190 -122 240 -44 112 -50 130
-80 240 -27 96 -31 127 -32 240 0 140 12 307 31 408 23 125 80 305 121 381 5
10 11 26 14 35 16 65 30 107 38 113 6 4 11 19 12 35 1 15 3 33 3 38 1 6 12 22
26 37 14 15 24 33 23 40 -2 8 5 12 15 10 13 -2 18 2 15 15 -1 10 1 24 5 30 6
9 3 11 -7 7 -20 -8 -20 1 -1 24 9 9 27 32 41 50 28 34 44 41 44 17 0 -11 11
-15 40 -15 29 0 40 4 40 15 0 11 11 15 40 15 36 0 40 -3 49 -32 9 -29 9 -27 6
19 -2 29 -6 57 -10 63 -3 5 -1 10 4 10 6 0 11 -7 11 -16z m9210 -7166 c998 -1
1770 -4 1715 -5 -55 -2 -107 -6 -115 -10 -8 -3 -37 -6 -65 -6 l-50 1 45 -7
c41 -7 37 -8 -40 -12 -67 -2 -50 -4 80 -9 190 -7 115 -7 -5435 -15 -2375 -4
-4160 -3 -4173 2 l-23 9 23 26 c13 14 32 29 43 32 11 3 1406 3 3100 1 1694 -3
3897 -6 4895 -7z"/>
</g>
</svg>
