<svg width="4008" height="5008" viewBox="0 0 4008 5008" fill="none" xmlns="http://www.w3.org/2000/svg">
<g filter="url(#filter0_d_1_2)">
<rect width="4000" height="5000" transform="translate(4)" fill="white"/>
<g clip-path="url(#clip0_1_2)">
<path d="M4004 0H4V5000H4004V0Z" fill="#001220"/>
<path d="M2528.44 5000L2536 4880.83C2543.11 4760.83 2558.22 4522.5 2538.22 4285C2518.22 4047.5 2463.11 3810.83 2429.33 3573.33C2395.11 3335.83 2381.78 3097.5 2416.44 2858.33C2451.56 2619.17 2534.22 2380.83 2558.67 2141.67C2583.11 1902.5 2549.33 1664.17 2540.44 1426.67C2531.56 1189.17 2547.56 952.5 2577.33 715C2607.11 477.5 2649.78 239.167 2671.56 119.167L2692.89 0H4004V119.167C4004 239.167 4004 477.5 4004 715C4004 952.5 4004 1189.17 4004 1426.67C4004 1664.17 4004 1902.5 4004 2141.67C4004 2380.83 4004 2619.17 4004 2858.33C4004 3097.5 4004 3335.83 4004 3573.33C4004 3810.83 4004 4047.5 4004 4285C4004 4522.5 4004 4760.83 4004 4880.83V5000H2528.44Z" fill="#0A192F"/>
<path d="M2621.78 5000L2672.89 4880.83C2724 4760.83 2826.22 4522.5 2881.78 4285C2937.33 4047.5 2946.22 3810.83 2959.56 3573.33C2972.89 3335.83 2990.67 3097.5 2981.78 2858.33C2972.89 2619.17 2937.33 2380.83 2906.22 2141.67C2875.11 1902.5 2848.44 1664.17 2842.67 1426.67C2836.44 1189.17 2851.56 952.5 2816.44 715C2781.78 477.5 2697.33 239.167 2655.11 119.167L2612.89 0H4004V119.167C4004 239.167 4004 477.5 4004 715C4004 952.5 4004 1189.17 4004 1426.67C4004 1664.17 4004 1902.5 4004 2141.67C4004 2380.83 4004 2619.17 4004 2858.33C4004 3097.5 4004 3335.83 4004 3573.33C4004 3810.83 4004 4047.5 4004 4285C4004 4522.5 4004 4760.83 4004 4880.83V5000H2621.78Z" fill="#132E53"/>
<path d="M2919.56 5000L2958.22 4880.83C2996.44 4760.83 3073.78 4522.5 3101.78 4285C3129.78 4047.5 3109.33 3810.83 3077.33 3573.33C3045.33 3335.83 3002.67 3097.5 2986.22 2858.33C2969.78 2619.17 2980.44 2380.83 2996.44 2141.67C3012.89 1902.5 3035.11 1664.17 3072 1426.67C3109.33 1189.17 3160.89 952.5 3168.44 715C3176 477.5 3138.67 239.167 3120.44 119.167L3101.78 0H4004V119.167C4004 239.167 4004 477.5 4004 715C4004 952.5 4004 1189.17 4004 1426.67C4004 1664.17 4004 1902.5 4004 2141.67C4004 2380.83 4004 2619.17 4004 2858.33C4004 3097.5 4004 3335.83 4004 3573.33C4004 3810.83 4004 4047.5 4004 4285C4004 4522.5 4004 4760.83 4004 4880.83V5000H2919.56Z" fill="#1C4579"/>
<path d="M3288.45 5000L3272 4880.83C3256 4760.83 3223.11 4522.5 3224.89 4285C3226.22 4047.5 3261.78 3810.83 3266.22 3573.33C3270.67 3335.83 3244 3097.5 3254.22 2858.33C3264.89 2619.17 3312 2380.83 3346.22 2141.67C3380.45 1902.5 3400.89 1664.17 3412 1426.67C3423.11 1189.17 3424.89 952.5 3380.89 715C3337.33 477.5 3248.45 239.167 3204 119.167L3159.56 0H4004V119.167C4004 239.167 4004 477.5 4004 715C4004 952.5 4004 1189.17 4004 1426.67C4004 1664.17 4004 1902.5 4004 2141.67C4004 2380.83 4004 2619.17 4004 2858.33C4004 3097.5 4004 3335.83 4004 3573.33C4004 3810.83 4004 4047.5 4004 4285C4004 4522.5 4004 4760.83 4004 4880.83V5000H3288.45Z" fill="#265DA2"/>
<path d="M3626.22 5000L3581.78 4880.83C3537.33 4760.83 3448.44 4522.5 3432.89 4285C3417.33 4047.5 3475.11 3810.83 3508.44 3573.33C3541.78 3335.83 3550.67 3097.5 3546.22 2858.33C3541.78 2619.17 3524 2380.83 3513.78 2141.67C3503.11 1902.5 3500.44 1664.17 3477.33 1426.67C3454.22 1189.17 3411.56 952.5 3398.67 715C3386.22 477.5 3404 239.167 3412.89 119.167L3421.78 0H4004V119.167C4004 239.167 4004 477.5 4004 715C4004 952.5 4004 1189.17 4004 1426.67C4004 1664.17 4004 1902.5 4004 2141.67C4004 2380.83 4004 2619.17 4004 2858.33C4004 3097.5 4004 3335.83 4004 3573.33C4004 3810.83 4004 4047.5 4004 4285C4004 4522.5 4004 4760.83 4004 4880.83V5000H3626.22Z" fill="#2F77CC"/>
<path d="M3764 5000L3744.89 4880.83C3725.33 4760.83 3687.11 4522.5 3671.56 4285C3656 4047.5 3663.11 3810.83 3687.56 3573.33C3712 3335.83 3753.78 3097.5 3777.33 2858.33C3800.89 2619.17 3807.11 2380.83 3804.89 2141.67C3802.67 1902.5 3792 1664.17 3769.78 1426.67C3747.56 1189.17 3713.78 952.5 3721.78 715C3729.78 477.5 3780.44 239.167 3805.33 119.167L3830.67 0H4004V119.167C4004 239.167 4004 477.5 4004 715C4004 952.5 4004 1189.17 4004 1426.67C4004 1664.17 4004 1902.5 4004 2141.67C4004 2380.83 4004 2619.17 4004 2858.33C4004 3097.5 4004 3335.83 4004 3573.33C4004 3810.83 4004 4047.5 4004 4285C4004 4522.5 4004 4760.83 4004 4880.83V5000H3764Z" fill="#3991F9"/>
</g>
</g>
<defs>
<filter id="filter0_d_1_2" x="0" y="0" width="4008" height="5008" filterUnits="userSpaceOnUse" color-interpolation-filters="sRGB">
<feFlood flood-opacity="0" result="BackgroundImageFix"/>
<feColorMatrix in="SourceAlpha" type="matrix" values="0 0 0 0 0 0 0 0 0 0 0 0 0 0 0 0 0 0 127 0" result="hardAlpha"/>
<feOffset dy="4"/>
<feGaussianBlur stdDeviation="2"/>
<feComposite in2="hardAlpha" operator="out"/>
<feColorMatrix type="matrix" values="0 0 0 0 0 0 0 0 0 0 0 0 0 0 0 0 0 0 0.25 0"/>
<feBlend mode="normal" in2="BackgroundImageFix" result="effect1_dropShadow_1_2"/>
<feBlend mode="normal" in="SourceGraphic" in2="effect1_dropShadow_1_2" result="shape"/>
</filter>
<clipPath id="clip0_1_2">
<rect width="4000" height="5000" fill="white" transform="translate(4)"/>
</clipPath>
</defs>
</svg>
