<?xml version="1.0" standalone="yes"?>
<svg xmlns="http://www.w3.org/2000/svg" width="787" height="577">
<path style="fill:#f7f9fb; stroke:none;" d="M0 0L0 577L787 577L787 0L0 0z"/>
<path style="fill:#d9dfef; stroke:none;" d="M267 191L369 191C379.379 191 400.083 187.065 408.985 192.742C416.849 197.758 416 206.893 416 215L416 269C416 276.928 416.182 285.393 407.996 289.543C397.779 294.724 378.329 291 367 291L267 291L267 411C267 422.759 262.413 445.646 274.04 452.992C286.257 460.71 311.03 456 325 456L453 456C470.793 456 496.87 460.676 497.961 436C500.527 377.919 498 319.144 498 261L498 218C498 211.528 499.304 204.272 494.852 199C482.239 184.064 466.826 170.826 453 157C446.799 150.799 439.898 140.977 432 137.028C423.429 132.742 406.515 136 397 136L310 136C299.043 136 280.574 132.551 271.903 140.789C261.755 150.431 267 177.997 267 191M185 191L186 192L185 191z"/>
<path style="fill:#f6c0b9; stroke:none;" d="M186 191L187 192L186 191z"/>
<path style="fill:#fca191; stroke:none;" d="M187 191L187 192L407 192L386 191L342 191L187 191z"/>
<path style="fill:#f6c0b9; stroke:none;" d="M407 191L408 192L407 191z"/>
<path style="fill:#d9dfef; stroke:none;" d="M183 192L184 193L183 192z"/>
<path style="fill:#ff6a4c; stroke:none;" d="M184.094 192.858C176.495 196.227 178 207.299 178 214L178 269C178 275.781 176.843 285.077 184.019 288.821C188.469 291.143 195.135 290 200 290L237 290L360 290L394 290C398.625 290 404.742 291.011 408.985 288.821C416.477 284.953 415 276.037 415 269L415 214C415 207.077 416.886 196.265 408.957 192.858C404.392 190.897 397.87 192 393 192L359 192L240 192L202 192C196.654 192 189.073 190.651 184.094 192.858z"/>
<path style="fill:#f6c0b9; stroke:none;" d="M409 192L410 193L409 192z"/>
<path style="fill:#fca191; stroke:none;" d="M182 193L183 194L182 193M410 193L411 194L410 193M180 195L181 196L180 195z"/>
<path style="fill:#f6c0b9; stroke:none;" d="M179 196L180 197L179 196z"/>
<path style="fill:#fca191; stroke:none;" d="M413 196L414 197L413 196z"/>
<path style="fill:#f6c0b9; stroke:none;" d="M178 198L179 199L178 198z"/>
<path style="fill:#fca191; stroke:none;" d="M414 198L415 199L414 198M178.333 199.667L178.667 200.333L178.333 199.667z"/>
<path style="fill:#f6c0b9; stroke:none;" d="M415 201L415 281L416 281L416 226L415 201z"/>
<path style="fill:#fca191; stroke:none;" d="M197 213L195 216L197 213z"/>
<path style="fill:#f6c0b9; stroke:none;" d="M198 213L198 214L202 214L198 213z"/>
<path style="fill:#fca191; stroke:none;" d="M202 213L203 214L202 213M236 213L237 214L236 213z"/>
<path style="fill:#f6c0b9; stroke:none;" d="M237 213L238 214L237 213z"/>
<path style="fill:#d9dfef; stroke:none;" d="M238 213L239 214L238 213z"/>
<path style="fill:#f6c0b9; stroke:none;" d="M239 213L240 214L239 213z"/>
<path style="fill:#fca191; stroke:none;" d="M240 213L241 214L240 213z"/>
<path style="fill:#f6c0b9; stroke:none;" d="M253.667 213.333L254.333 213.667L253.667 213.333z"/>
<path style="fill:#f7f9fb; stroke:none;" d="M266 224C266 235.321 265.714 246.683 266.015 258C266.117 261.846 266.841 267.776 271.975 267.623C277.092 267.472 276.98 261.721 276.999 258C277.059 246.667 277 235.333 277 224C280.988 224 287.249 225.16 290.768 222.972C294.488 220.66 293.511 215.666 289.786 214.032C282.526 210.848 270.806 212.987 263 213C259.129 213.006 243.361 216.531 252.434 222.821C255.803 225.156 262.099 224 266 224z"/>
<path style="fill:#d9dfef; stroke:none;" d="M288 213L289 214L288 213z"/>
<path style="fill:#f6c0b9; stroke:none;" d="M289 213L290 214L289 213z"/>
<path style="fill:#fca191; stroke:none;" d="M290 213L291 214L290 213M302 213L303 214L302 213z"/>
<path style="fill:#f6c0b9; stroke:none;" d="M303 213L303 214L307 214L303 213z"/>
<path style="fill:#fca191; stroke:none;" d="M307 213L308 214L307 213M341 213L342 214L341 213z"/>
<path style="fill:#f6c0b9; stroke:none;" d="M342 213L343 214L342 213z"/>
<path style="fill:#d9dfef; stroke:none;" d="M343 213L344 214L343 213z"/>
<path style="fill:#f6c0b9; stroke:none;" d="M344 213L345 214L344 213z"/>
<path style="fill:#fca191; stroke:none;" d="M345 213L346 214L345 213M363 213L364 214L363 213z"/>
<path style="fill:#f6c0b9; stroke:none;" d="M364 213L365 214L364 213z"/>
<path style="fill:#d9dfef; stroke:none;" d="M365 213L366 214L365 213z"/>
<path style="fill:#f6c0b9; stroke:none;" d="M366 213L367 214L366 213z"/>
<path style="fill:#fca191; stroke:none;" d="M367 213L368 214L367 213z"/>
<path style="fill:#f7f9fb; stroke:none;" d="M205 252L233 252C233 255.921 232.096 261.34 234.179 264.852C236.531 268.817 242.192 268.354 243.566 263.891C247.136 252.301 244.72 233.122 243.956 221.001C243.577 214.976 236.687 211.021 233.742 218.059C231.132 224.296 233 234.304 233 241L205 241C205 234.27 207.106 223.351 204.397 217.148C201.846 211.308 195.49 215.143 195.059 220.005C193.975 232.215 191.921 252.218 195.434 263.941C196.553 267.676 201.535 269.327 203.972 265.682C206.214 262.329 205 255.867 205 252z"/>
<path style="fill:#f6c0b9; stroke:none;" d="M203 214L204 215L203 214M235 214L236 215L235 214z"/>
<path style="fill:#fca191; stroke:none;" d="M242 214L243 215L242 214M251 214L252 215L251 214z"/>
<path style="fill:#f6c0b9; stroke:none;" d="M301 214L300 216L301 214z"/>
<path style="fill:#f7f9fb; stroke:none;" d="M310 239L311 239C317.991 253.973 330.757 256.149 337 239L338 239L338 252C338 255.905 337.097 261.344 339.179 264.852C341.855 269.361 347.477 267.577 348.682 262.981C351.468 252.351 349.001 237.993 349 227C349 223.452 350.004 217.367 346.566 215.029C339.43 210.174 334 223.664 331.4 228C329.051 231.917 326.765 235.783 325 240C320.067 234.041 314.043 215.792 305.965 214.377C298.122 213.002 299 224.288 299 229C298.999 239.309 296.604 253.08 299.573 262.981C300.744 266.888 306.067 270.024 308.972 265.682C311.21 262.338 310 255.839 310 252L310 239z"/>
<path style="fill:#f6c0b9; stroke:none;" d="M308 214L309 215L308 214z"/>
<path style="fill:#f7f9fb; stroke:none;" d="M371 257L371 238C371 233.765 373.245 207.449 362.514 215.029C359.153 217.403 360.001 223.466 360 227C359.997 235.917 355.931 258.636 361.742 265.682C365 269.632 373.459 268 378 268C382.527 268 394.133 270.084 396.968 265.682C404.052 254.68 375.477 257 371 257z"/>
<path style="fill:#f6c0b9; stroke:none;" d="M204 215L205 216L204 215z"/>
<path style="fill:#d9dfef; stroke:none;" d="M234 215L235 216L234 215z"/>
<path style="fill:#fca191; stroke:none;" d="M243 215L244 216L243 215M250 215L251 216L250 215z"/>
<path style="fill:#d9dfef; stroke:none;" d="M292 215L293 216L292 215z"/>
<path style="fill:#fca191; stroke:none;" d="M309 215L310 216L309 215M370 215L371 216L370 215M205.333 216.667L205.667 217.333L205.333 216.667M233 216L234 217L233 216z"/>
<path style="fill:#d9dfef; stroke:none;" d="M243 216L244 217L243 216M250 216L251 217L250 216z"/>
<path style="fill:#f6c0b9; stroke:none;" d="M293 216L294 217L293 216M338 216L339 217L338 216M348 216L349 217L348 216z"/>
<path style="fill:#fca191; stroke:none;" d="M360 216L361 217L360 216z"/>
<path style="fill:#f6c0b9; stroke:none;" d="M370 216L371 217L370 216z"/>
<path style="fill:#fca191; stroke:none;" d="M194 217L195 218L194 217z"/>
<path style="fill:#f6c0b9; stroke:none;" d="M233 217L234 218L233 217z"/>
<path style="fill:#d9dfef; stroke:none;" d="M293 217L294 218L293 217z"/>
<path style="fill:#f6c0b9; stroke:none;" d="M299 217L300 218L299 217M310 217L311 218L310 217z"/>
<path style="fill:#fca191; stroke:none;" d="M337 217L338 218L337 217z"/>
<path style="fill:#f6c0b9; stroke:none;" d="M360 217L361 218L360 217M194 218L194 263L195 263C195 250.258 198.91 229.701 194 218M205 218L205 241L206 241L205 218z"/>
<path style="fill:#fca191; stroke:none;" d="M249 218L250 219L249 218z"/>
<path style="fill:#d9dfef; stroke:none;" d="M299 218L300 219L299 218z"/>
<path style="fill:#fca191; stroke:none;" d="M311 218L312 219L311 218M336 219L337 220L336 219z"/>
<path style="fill:#f6c0b9; stroke:none;" d="M293 220L294 221L293 220z"/>
<path style="fill:#fca191; stroke:none;" d="M312 220L313 221L312 220z"/>
<path style="fill:#f6c0b9; stroke:none;" d="M250 221L251 222L250 221z"/>
<path style="fill:#fca191; stroke:none;" d="M293 221L294 222L293 221z"/>
<path style="fill:#f6c0b9; stroke:none;" d="M335 221L336 222L335 221z"/>
<path style="fill:#fca191; stroke:none;" d="M292 222L293 223L292 222z"/>
<path style="fill:#f6c0b9; stroke:none;" d="M313 222L314 223L313 222z"/>
<path style="fill:#fca191; stroke:none;" d="M334 222L335 223L334 222z"/>
<path style="fill:#f6c0b9; stroke:none;" d="M252 223L253 224L252 223z"/>
<path style="fill:#fca191; stroke:none;" d="M291 223L292 224L291 223M314 223L315 224L314 223M255 224L255 225L266 225L255 224z"/>
<path style="fill:#f6c0b9; stroke:none;" d="M277 224L278 225L277 224z"/>
<path style="fill:#fca191; stroke:none;" d="M278 224L278 225L289 225L278 224M333 224L334 225L333 224M277 225L277 265L278 265C278 253.566 281.411 235.512 277 225M315 225L316 226L315 225z"/>
<path style="fill:#f6c0b9; stroke:none;" d="M332 226L333 227L332 226z"/>
<path style="fill:#fca191; stroke:none;" d="M317 228L318 229L317 228M330 229L331 230L330 229z"/>
<path style="fill:#f6c0b9; stroke:none;" d="M318 230L319 231L318 230M329 231L330 232L329 231z"/>
<path style="fill:#d9dfef; stroke:none;" d="M319 232L320 233L319 232z"/>
<path style="fill:#fca191; stroke:none;" d="M328 232L329 233L328 232M320 233L321 234L320 233z"/>
<path style="fill:#f6c0b9; stroke:none;" d="M327 234L328 235L327 234M321 235L322 236L321 235M326 236L327 237L326 236M322 237L323 238L322 237z"/>
<path style="fill:#fca191; stroke:none;" d="M325 237L326 238L325 237M323 238L324 239L323 238z"/>
<path style="fill:#d9dfef; stroke:none;" d="M325 238L326 239L325 238M310 239L311 240L310 239z"/>
<path style="fill:#f6c0b9; stroke:none;" d="M324 239L325 240L324 239M337 239L338 240L337 239z"/>
<path style="fill:#fca191; stroke:none;" d="M206 240L206 241L233 241L206 240z"/>
<path style="fill:#f6c0b9; stroke:none;" d="M310 240L310 263L311 263L312 240L310 240M336 241L337 242L336 241z"/>
<path style="fill:#fca191; stroke:none;" d="M312 242L313 243L312 242z"/>
<path style="fill:#d9dfef; stroke:none;" d="M335 242L336 243L335 242M313 243L314 244L313 243z"/>
<path style="fill:#fca191; stroke:none;" d="M335 243L336 244L335 243M313 244L314 245L313 244z"/>
<path style="fill:#f6c0b9; stroke:none;" d="M334 244L335 245L334 244M314 245L315 246L314 245M333 246L334 247L333 246z"/>
<path style="fill:#fca191; stroke:none;" d="M315 247L316 248L315 247M332 248L333 249L332 248z"/>
<path style="fill:#f6c0b9; stroke:none;" d="M331 249L332 250L331 249z"/>
<path style="fill:#fca191; stroke:none;" d="M317 250L318 251L317 250z"/>
<path style="fill:#f6c0b9; stroke:none;" d="M330 250L331 251L330 250M319 251L320 252L319 251z"/>
<path style="fill:#d9dfef; stroke:none;" d="M328 251L329 252L328 251z"/>
<path style="fill:#fca191; stroke:none;" d="M329 251L330 252L329 251z"/>
<path style="fill:#f6c0b9; stroke:none;" d="M205 252L205 264L206 264L205 252z"/>
<path style="fill:#d9dfef; stroke:none;" d="M393 257L394 258L393 257z"/>
<path style="fill:#f6c0b9; stroke:none;" d="M394 257L395 258L394 257M396 258L397 259L396 258z"/>
<path style="fill:#fca191; stroke:none;" d="M397 259L398 260L397 259M398 260L399 261L398 260z"/>
<path style="fill:#f6c0b9; stroke:none;" d="M398 261L399 262L398 261z"/>
<path style="fill:#d9dfef; stroke:none;" d="M398 262L399 263L398 262z"/>
<path style="fill:#fca191; stroke:none;" d="M194 263L195 264L194 263z"/>
<path style="fill:#d9dfef; stroke:none;" d="M266 263L267 264L266 263z"/>
<path style="fill:#f6c0b9; stroke:none;" d="M299 263L300 264L299 263z"/>
<path style="fill:#fca191; stroke:none;" d="M310.333 263.667L310.667 264.333L310.333 263.667z"/>
<path style="fill:#f6c0b9; stroke:none;" d="M398.333 263.667L398.667 264.333L398.333 263.667z"/>
<path style="fill:#fca191; stroke:none;" d="M205 264L206 265L205 264z"/>
<path style="fill:#f6c0b9; stroke:none;" d="M233 264L234 265L233 264z"/>
<path style="fill:#fca191; stroke:none;" d="M266 264L267 265L266 264M299 264L300 265L299 264z"/>
<path style="fill:#d9dfef; stroke:none;" d="M338 264L339 265L338 264z"/>
<path style="fill:#f6c0b9; stroke:none;" d="M360 264L361 265L360 264M195 265L196 266L195 265M243 265L244 266L243 265z"/>
<path style="fill:#d9dfef; stroke:none;" d="M276 265L277 266L276 265z"/>
<path style="fill:#fca191; stroke:none;" d="M338 265L339 266L338 265M348 265L349 266L348 265M360 265L361 266L360 265M195 266L196 267L195 266M204 266L205 267L204 266z"/>
<path style="fill:#f6c0b9; stroke:none;" d="M234 266L235 267L234 266M267 266L268 267L267 266z"/>
<path style="fill:#fca191; stroke:none;" d="M300 266L301 267L300 266z"/>
<path style="fill:#f6c0b9; stroke:none;" d="M339 266L340 267L339 266M347 266L348 267L347 266M361 266L362 267L361 266z"/>
<path style="fill:#fca191; stroke:none;" d="M397 266L398 267L397 266M203 267L204 268L203 267M235 267L236 268L235 267z"/>
<path style="fill:#f6c0b9; stroke:none;" d="M241 267L242 268L241 267z"/>
<path style="fill:#fca191; stroke:none;" d="M268 267L269 268L268 267z"/>
<path style="fill:#d9dfef; stroke:none;" d="M274 267L275 268L274 267z"/>
<path style="fill:#fca191; stroke:none;" d="M340 267L341 268L340 267z"/>
<path style="fill:#f6c0b9; stroke:none;" d="M346 267L347 268L346 267z"/>
<path style="fill:#fca191; stroke:none;" d="M362 267L363 268L362 267M396 267L397 268L396 267M198 268L198 269L202 269L198 268M237 268L237 269L241 269L237 268M270 268L270 269L274 269L270 268M303 268L303 269L307 269L303 268M342 268L342 269L345 269L342 268M364.667 268.333L365.333 268.667L364.667 268.333z"/>
<path style="fill:#f6c0b9; stroke:none;" d="M366 268L366 269L393 269L366 268z"/>
<path style="fill:#fca191; stroke:none;" d="M393.667 268.333L394.333 268.667L393.667 268.333M178 281L179 282L178 281z"/>
<path style="fill:#f6c0b9; stroke:none;" d="M178 282L179 283L178 282z"/>
<path style="fill:#d9dfef; stroke:none;" d="M178 283L179 284L178 283z"/>
<path style="fill:#f6c0b9; stroke:none;" d="M414 283L415 284L414 283M413 285L414 286L413 285M180 286L181 287L180 286z"/>
<path style="fill:#fca191; stroke:none;" d="M412 286L413 287L412 286z"/>
<path style="fill:#f6c0b9; stroke:none;" d="M181 287L182 288L181 287z"/>
<path style="fill:#fca191; stroke:none;" d="M411 287L412 288L411 287z"/>
<path style="fill:#f6c0b9; stroke:none;" d="M182 288L183 289L182 288z"/>
<path style="fill:#fca191; stroke:none;" d="M410 288L411 289L410 288M184 289L185 290L184 289M408 289L409 290L408 289z"/>
<path style="fill:#d9dfef; stroke:none;" d="M186 290L187 291L186 290z"/>
<path style="fill:#f6c0b9; stroke:none;" d="M187 290L187 291L407 291L386 290L342 290L187 290M397 323L397 324L400 324L397 323M395 324L394 326L395 324z"/>
<path style="fill:#ff6a4c; stroke:none;" d="M396.225 325.047C390.808 328.03 388.7 340.542 386.681 346C379.64 365.042 372.408 384.023 365.192 403C363.869 406.479 356.256 425.009 366.9 422.069C373.17 420.337 375.943 405.404 377.858 400C385.586 378.192 394.826 356.894 402.304 335C403.688 330.948 403.321 321.138 396.225 325.047z"/>
<path style="fill:#fca191; stroke:none;" d="M401 324L402 325L401 324M402 325L403 326L402 325M403 326L404 327L403 326M393 327L394 328L393 327z"/>
<path style="fill:#f6c0b9; stroke:none;" d="M392 329L393 330L392 329z"/>
<path style="fill:#fca191; stroke:none;" d="M392 330L393 331L392 330M403 331L404 332L403 331z"/>
<path style="fill:#f6c0b9; stroke:none;" d="M391 332L392 333L391 332M403 332L404 333L403 332M390 334L391 335L390 334z"/>
<path style="fill:#fca191; stroke:none;" d="M402 334L403 335L402 334M346 335L347 336L346 335z"/>
<path style="fill:#ff6a4c; stroke:none;" d="M346.996 335.786C336.409 339.216 324.673 356.094 317.015 364C314.254 366.851 310.293 370.575 311.647 375C314.85 385.461 332.278 397.383 340 404.996C342.577 407.537 346.667 412.64 350.852 410.712C356.283 408.21 352.503 401.941 349.891 399C343.906 392.261 328.512 382.779 326.207 374C325.274 370.447 329.846 367.163 332 365C338.439 358.534 346.229 352.326 351.681 345C354.74 340.89 353.471 333.689 346.996 335.786z"/>
<path style="fill:#fca191; stroke:none;" d="M351 335L352 336L351 335M390 335L391 336L390 335z"/>
<path style="fill:#f6c0b9; stroke:none;" d="M402 335L403 336L402 335z"/>
<path style="fill:#fca191; stroke:none;" d="M412 335L411 337L412 335z"/>
<path style="fill:#ff6a4c; stroke:none;" d="M441 373L417.001 397C414.37 399.649 409.32 403.529 410.801 407.866C412.989 414.273 420.009 409.43 422.92 406.711C431.508 398.685 448.022 386.767 452.488 375.83C454.47 370.979 450.076 367.135 446.995 364C439.73 356.607 432.38 349.281 425 342.004C422.226 339.268 417.637 333.732 413.149 336.072C407.539 338.996 412.303 345.076 415.044 348C423 356.488 431.489 366.3 441 373z"/>
<path style="fill:#fca191; stroke:none;" d="M417 335L418 336L417 335z"/>
<path style="fill:#f6c0b9; stroke:none;" d="M418 335L419 336L418 335M419 336L420 337L419 336z"/>
<path style="fill:#fca191; stroke:none;" d="M353 337L354 338L353 337z"/>
<path style="fill:#f6c0b9; stroke:none;" d="M389 337L390 338L389 337M401 337L402 338L401 337M410 337L411 338L410 337M420 337L421 338L420 337M342 338L343 339L342 338z"/>
<path style="fill:#fca191; stroke:none;" d="M389 338L390 339L389 338z"/>
<path style="fill:#f6c0b9; stroke:none;" d="M421 338L422 339L421 338M354.333 339.667L354.667 340.333L354.333 339.667z"/>
<path style="fill:#fca191; stroke:none;" d="M400 339L401 340L400 339z"/>
<path style="fill:#f6c0b9; stroke:none;" d="M422 339L423 340L422 339M340 340L341 341L340 340M388 340L389 341L388 340M400 340L401 341L400 340z"/>
<path style="fill:#fca191; stroke:none;" d="M423 340L424 341L423 340M388 341L389 342L388 341z"/>
<path style="fill:#f6c0b9; stroke:none;" d="M424 341L425 342L424 341M387 342L388 343L387 342z"/>
<path style="fill:#fca191; stroke:none;" d="M399 342L400 343L399 342M410 342L411 343L410 342z"/>
<path style="fill:#f6c0b9; stroke:none;" d="M425 342L426 343L425 342M337 343L338 344L337 343M353 343L354 344L353 343z"/>
<path style="fill:#fca191; stroke:none;" d="M387 343L388 344L387 343z"/>
<path style="fill:#f6c0b9; stroke:none;" d="M426 343L427 344L426 343z"/>
<path style="fill:#fca191; stroke:none;" d="M352 344L353 345L352 344z"/>
<path style="fill:#f6c0b9; stroke:none;" d="M427 344L428 345L427 344M335 345L336 346L335 345z"/>
<path style="fill:#fca191; stroke:none;" d="M351 345L352 346L351 345z"/>
<path style="fill:#f6c0b9; stroke:none;" d="M386 345L387 346L386 345z"/>
<path style="fill:#fca191; stroke:none;" d="M398 345L399 346L398 345z"/>
<path style="fill:#f6c0b9; stroke:none;" d="M412 345L413 346L412 345z"/>
<path style="fill:#fca191; stroke:none;" d="M428 345L429 346L428 345M350 346L351 347L350 346M386 346L387 347L386 346z"/>
<path style="fill:#f6c0b9; stroke:none;" d="M413 346L414 347L413 346M429 346L430 347L429 346M349 347L350 348L349 347z"/>
<path style="fill:#fca191; stroke:none;" d="M397 347L398 348L397 347z"/>
<path style="fill:#f6c0b9; stroke:none;" d="M414 347L415 348L414 347M430 347L431 348L430 347M332 348L333 349L332 348z"/>
<path style="fill:#fca191; stroke:none;" d="M348 348L349 349L348 348z"/>
<path style="fill:#f6c0b9; stroke:none;" d="M385 348L386 349L385 348M397 348L398 349L397 348M415 348L416 349L415 348M431 348L432 349L431 348z"/>
<path style="fill:#fca191; stroke:none;" d="M347 349L348 350L347 349M385 349L386 350L385 349z"/>
<path style="fill:#f6c0b9; stroke:none;" d="M432 349L433 350L432 349M330 350L331 351L330 350z"/>
<path style="fill:#fca191; stroke:none;" d="M346 350L347 351L346 350M396 350L397 351L396 350z"/>
<path style="fill:#f6c0b9; stroke:none;" d="M417 350L418 351L417 350z"/>
<path style="fill:#fca191; stroke:none;" d="M433 350L434 351L433 350M345 351L346 352L345 351M384 351L385 352L384 351z"/>
<path style="fill:#f6c0b9; stroke:none;" d="M418 351L419 352L418 351M434 351L435 352L434 351M344 352L345 353L344 352z"/>
<path style="fill:#fca191; stroke:none;" d="M395.333 352.667L395.667 353.333L395.333 352.667z"/>
<path style="fill:#f6c0b9; stroke:none;" d="M419 352L420 353L419 352M435 352L436 353L435 352M327 353L328 354L327 353z"/>
<path style="fill:#fca191; stroke:none;" d="M343 353L344 354L343 353z"/>
<path style="fill:#f6c0b9; stroke:none;" d="M383 353L384 354L383 353M420 353L421 354L420 353M436 353L437 354L436 353z"/>
<path style="fill:#fca191; stroke:none;" d="M342 354L343 355L342 354M383 354L384 355L383 354z"/>
<path style="fill:#f6c0b9; stroke:none;" d="M437 354L438 355L437 354M325 355L326 356L325 355z"/>
<path style="fill:#fca191; stroke:none;" d="M341 355L342 356L341 355M394 355L395 356L394 355z"/>
<path style="fill:#f6c0b9; stroke:none;" d="M422 355L423 356L422 355z"/>
<path style="fill:#fca191; stroke:none;" d="M438 355L439 356L438 355M340 356L341 357L340 356M382 356L383 357L382 356z"/>
<path style="fill:#f6c0b9; stroke:none;" d="M394 356L395 357L394 356M423 356L424 357L423 356M439 356L440 357L439 356M339 357L340 358L339 357M424 357L425 358L424 357M440 357L441 358L440 357M322 358L323 359L322 358z"/>
<path style="fill:#fca191; stroke:none;" d="M338 358L339 359L338 358M393 358L394 359L393 358z"/>
<path style="fill:#f6c0b9; stroke:none;" d="M425 358L426 359L425 358M441 358L442 359L441 358z"/>
<path style="fill:#fca191; stroke:none;" d="M337 359L338 360L337 359M381 359L382 360L381 359z"/>
<path style="fill:#f6c0b9; stroke:none;" d="M393 359L394 360L393 359M442 359L443 360L442 359M320 360L321 361L320 360z"/>
<path style="fill:#fca191; stroke:none;" d="M336 360L337 361L336 360M392 360L393 361L392 360z"/>
<path style="fill:#f6c0b9; stroke:none;" d="M427 360L428 361L427 360z"/>
<path style="fill:#fca191; stroke:none;" d="M443 360L444 361L443 360M335 361L336 362L335 361z"/>
<path style="fill:#f6c0b9; stroke:none;" d="M380 361L381 362L380 361M392 361L393 362L392 361M428 361L429 362L428 361M444 361L445 362L444 361M334 362L335 363L334 362z"/>
<path style="fill:#fca191; stroke:none;" d="M380 362L381 363L380 362z"/>
<path style="fill:#f6c0b9; stroke:none;" d="M429 362L430 363L429 362M445 362L446 363L445 362M317 363L318 364L317 363z"/>
<path style="fill:#fca191; stroke:none;" d="M333 363L334 364L333 363z"/>
<path style="fill:#f6c0b9; stroke:none;" d="M430 363L431 364L430 363M446 363L447 364L446 363z"/>
<path style="fill:#fca191; stroke:none;" d="M332 364L333 365L332 364z"/>
<path style="fill:#f6c0b9; stroke:none;" d="M379 364L380 365L379 364M391 364L392 365L391 364M447 364L448 365L447 364M315 365L316 366L315 365z"/>
<path style="fill:#fca191; stroke:none;" d="M331 365L332 366L331 365z"/>
<path style="fill:#f6c0b9; stroke:none;" d="M432 365L433 366L432 365z"/>
<path style="fill:#fca191; stroke:none;" d="M448 365L449 366L448 365M330 366L331 367L330 366M390 366L391 367L390 366z"/>
<path style="fill:#f6c0b9; stroke:none;" d="M433 366L434 367L433 366M449 366L450 367L449 366M329 367L330 368L329 367z"/>
<path style="fill:#fca191; stroke:none;" d="M378 367L379 368L378 367z"/>
<path style="fill:#f6c0b9; stroke:none;" d="M390 367L391 368L390 367M434 367L435 368L434 367M450 367L451 368L450 367M312 368L313 369L312 368z"/>
<path style="fill:#fca191; stroke:none;" d="M328 368L329 369L328 368z"/>
<path style="fill:#f6c0b9; stroke:none;" d="M435 368L436 369L435 368M451 368L452 369L451 368z"/>
<path style="fill:#fca191; stroke:none;" d="M327 369L328 370L327 369z"/>
<path style="fill:#f6c0b9; stroke:none;" d="M377 369L378 370L377 369M389 369L390 370L389 369M452 369L453 370L452 369z"/>
<path style="fill:#fca191; stroke:none;" d="M311 370L312 371L311 370M326 370L327 371L326 370M377 370L378 371L377 370z"/>
<path style="fill:#f6c0b9; stroke:none;" d="M437 370L438 371L437 370M310.333 371.667L310.667 372.333L310.333 371.667z"/>
<path style="fill:#fca191; stroke:none;" d="M325 371L326 372L325 371M388 371L389 372L388 371z"/>
<path style="fill:#f6c0b9; stroke:none;" d="M438 371L439 372L438 371z"/>
<path style="fill:#fca191; stroke:none;" d="M453.333 371.667L453.667 372.333L453.333 371.667z"/>
<path style="fill:#f6c0b9; stroke:none;" d="M324 372L325 373L324 372M376 372L377 373L376 372M388 372L389 373L388 372M439 372L440 373L439 372z"/>
<path style="fill:#fca191; stroke:none;" d="M310 373L311 374L310 373M440 373L441 374L440 373z"/>
<path style="fill:#f6c0b9; stroke:none;" d="M310 374L311 375L310 374M375 374L376 375L375 374z"/>
<path style="fill:#fca191; stroke:none;" d="M387 374L388 375L387 374M439 374L440 375L439 374M453 374L454 375L453 374M375 375L376 376L375 375z"/>
<path style="fill:#f6c0b9; stroke:none;" d="M387 375L388 376L387 375z"/>
<path style="fill:#fca191; stroke:none;" d="M438 375L439 376L438 375z"/>
<path style="fill:#f6c0b9; stroke:none;" d="M453 375L454 376L453 375M311 376L312 377L311 376z"/>
<path style="fill:#fca191; stroke:none;" d="M437 376L438 377L437 376M452 376L453 377L452 376M312 377L313 378L312 377z"/>
<path style="fill:#f6c0b9; stroke:none;" d="M374 377L375 378L374 377M386 377L387 378L386 377z"/>
<path style="fill:#fca191; stroke:none;" d="M436 377L437 378L436 377M313 378L314 379L313 378M374 378L375 379L374 378M435 378L436 379L435 378M450 378L451 379L450 378M314 379L315 380L314 379M385 379L386 380L385 379M434 379L435 380L434 379M315 380L316 381L315 380z"/>
<path style="fill:#f6c0b9; stroke:none;" d="M373 380L374 381L373 380M385 380L386 381L385 380z"/>
<path style="fill:#fca191; stroke:none;" d="M433 380L434 381L433 380M316 381L317 382L316 381M373 381L374 382L373 381M432 381L433 382L432 381M317 382L318 383L317 382z"/>
<path style="fill:#f6c0b9; stroke:none;" d="M372 382L373 383L372 382z"/>
<path style="fill:#fca191; stroke:none;" d="M384 382L385 383L384 382M431 382L432 383L431 382M318 383L319 384L318 383M372 383L373 384L372 383M430 383L431 384L430 383M445 383L446 384L445 383M319 384L320 385L319 384M429 384L430 385L429 384M320 385L321 386L320 385z"/>
<path style="fill:#f6c0b9; stroke:none;" d="M371 385L372 386L371 385z"/>
<path style="fill:#fca191; stroke:none;" d="M383 385L384 386L383 385M428 385L429 386L428 385M321 386L322 387L321 386M371 386L372 387L371 386M427 386L428 387L427 386M322 387L323 388L322 387M382 387L383 388L382 387M426 387L427 388L426 387M323 388L324 389L323 388z"/>
<path style="fill:#f6c0b9; stroke:none;" d="M370 388L371 389L370 388M382 388L383 389L382 388z"/>
<path style="fill:#fca191; stroke:none;" d="M425 388L426 389L425 388M440 388L441 389L440 388M324 389L325 390L324 389M370 389L371 390L370 389M424 389L425 390L424 389M325 390L326 391L325 390M381 390L382 391L381 390M423 390L424 391L423 390M326 391L327 392L326 391M369 391L370 392L369 391M422 391L423 392L422 391M327 392L328 393L327 392M380.333 392.667L380.667 393.333L380.333 392.667M421 392L422 393L421 392M328 393L329 394L328 393z"/>
<path style="fill:#f6c0b9; stroke:none;" d="M368 393L369 394L368 393z"/>
<path style="fill:#fca191; stroke:none;" d="M420 393L421 394L420 393M435 393L436 394L435 393M329 394L330 395L329 394M368 394L369 395L368 394M419 394L420 395L419 394M330 395L331 396L330 395M379 395L380 396L379 395M418 395L419 396L418 395M331 396L332 397L331 396M367 396L368 397L367 396z"/>
<path style="fill:#f6c0b9; stroke:none;" d="M379 396L380 397L379 396z"/>
<path style="fill:#fca191; stroke:none;" d="M417 396L418 397L417 396M332 397L333 398L332 397M416 397L417 398L416 397M333 398L334 399L333 398M378 398L379 399L378 398M415 398L416 399L415 398M430 398L431 399L430 398M334 399L335 400L334 399M366 399L367 400L366 399z"/>
<path style="fill:#f6c0b9; stroke:none;" d="M378 399L379 400L378 399z"/>
<path style="fill:#fca191; stroke:none;" d="M414 399L415 400L414 399M335 400L336 401L335 400M377 400L378 401L377 400M413 400L414 401L413 400M336 401L337 402L336 401z"/>
<path style="fill:#f6c0b9; stroke:none;" d="M365 401L366 402L365 401M377 401L378 402L377 401z"/>
<path style="fill:#fca191; stroke:none;" d="M412 401L413 402L412 401M337 402L338 403L337 402M365 402L366 403L365 402M411 402L412 403L411 402M338 403L339 404L338 403M353 403L354 404L353 403z"/>
<path style="fill:#f6c0b9; stroke:none;" d="M410 403L411 404L410 403z"/>
<path style="fill:#fca191; stroke:none;" d="M425 403L426 404L425 403M339 404L340 405L339 404z"/>
<path style="fill:#f6c0b9; stroke:none;" d="M364 404L365 405L364 404M376 404L377 405L376 404z"/>
<path style="fill:#fca191; stroke:none;" d="M340 405L341 406L340 405z"/>
<path style="fill:#f6c0b9; stroke:none;" d="M354 405L354 408L355 408L354 405z"/>
<path style="fill:#fca191; stroke:none;" d="M341 406L342 407L341 406M375 406L376 407L375 406M342 407L343 408L342 407M363 407L364 408L363 407z"/>
<path style="fill:#f6c0b9; stroke:none;" d="M375 407L376 408L375 407z"/>
<path style="fill:#fca191; stroke:none;" d="M343 408L344 409L343 408M410 408L411 409L410 408M420 408L421 409L420 408M344 409L345 410L344 409M353 409L354 410L353 409z"/>
<path style="fill:#f6c0b9; stroke:none;" d="M362 409L363 410L362 409M374 409L375 410L374 409M410 409L411 410L410 409M345 410L346 411L345 410z"/>
<path style="fill:#fca191; stroke:none;" d="M352 410L353 411L352 410M362 410L363 411L362 410z"/>
<path style="fill:#f6c0b9; stroke:none;" d="M411 410L412 411L411 410z"/>
<path style="fill:#fca191; stroke:none;" d="M418 410L419 411L418 410M347 411L348 412L347 411M350 411L351 412L350 411z"/>
<path style="fill:#f6c0b9; stroke:none;" d="M351 411L352 412L351 411z"/>
<path style="fill:#fca191; stroke:none;" d="M373 411L374 412L373 411M413.667 411.333L414.333 411.667L413.667 411.333M416 411L417 412L416 411z"/>
<path style="fill:#f6c0b9; stroke:none;" d="M417 411L418 412L417 411M361 412L362 413L361 412M373 412L374 413L373 412M360 414L361 415L360 414z"/>
<path style="fill:#fca191; stroke:none;" d="M372 414L373 415L372 414M360 415L360 419L361 419L360 415z"/>
<path style="fill:#f6c0b9; stroke:none;" d="M372 415L373 416L372 415M371 417L372 418L371 417M360 419L361 420L360 419z"/>
<path style="fill:#fca191; stroke:none;" d="M370 419L371 420L370 419z"/>
<path style="fill:#f6c0b9; stroke:none;" d="M369 421L370 422L369 421M363 422L364 423L363 422z"/>
<path style="fill:#fca191; stroke:none;" d="M364 422L365 423L364 422z"/>
<path style="fill:#f6c0b9; stroke:none;" d="M367 422L368 423L367 422z"/>
</svg>
