
<svg id="visual" viewBox="0 0 900 600" width="900" height="600"
    xmlns="http://www.w3.org/2000/svg"
    xmlns:xlink="http://www.w3.org/1999/xlink" version="1.1">
    <rect x="0" y="0" width="900" height="600" fill="#001220"></rect>
    <path
        d="M568 600L569.7 585.7C571.3 571.3 574.7 542.7 570.2 514.2C565.7 485.7 553.3 457.3 545.7 428.8C538 400.3 535 371.7 542.8 343C550.7 314.3 569.3 285.7 574.8 257C580.3 228.3 572.7 199.7 570.7 171.2C568.7 142.7 572.3 114.3 579 85.8C585.7 57.3 595.3 28.7 600.2 14.3L605 0L900 0L900 14.3C900 28.7 900 57.3 900 85.8C900 114.3 900 142.7 900 171.2C900 199.7 900 228.3 900 257C900 285.7 900 314.3 900 343C900 371.7 900 400.3 900 428.8C900 457.3 900 485.7 900 514.2C900 542.7 900 571.3 900 585.7L900 600Z"
        fill="#0a192f"></path>
    <path
        d="M589 600L600.5 585.7C612 571.3 635 542.7 647.5 514.2C660 485.7 662 457.3 665 428.8C668 400.3 672 371.7 670 343C668 314.3 660 285.7 653 257C646 228.3 640 199.7 638.7 171.2C637.3 142.7 640.7 114.3 632.8 85.8C625 57.3 606 28.7 596.5 14.3L587 0L900 0L900 14.3C900 28.7 900 57.3 900 85.8C900 114.3 900 142.7 900 171.2C900 199.7 900 228.3 900 257C900 285.7 900 314.3 900 343C900 371.7 900 400.3 900 428.8C900 457.3 900 485.7 900 514.2C900 542.7 900 571.3 900 585.7L900 600Z"
        fill="#132e53"></path>
    <path
        d="M656 600L664.7 585.7C673.3 571.3 690.7 542.7 697 514.2C703.3 485.7 698.7 457.3 691.5 428.8C684.3 400.3 674.7 371.7 671 343C667.3 314.3 669.7 285.7 673.3 257C677 228.3 682 199.7 690.3 171.2C698.7 142.7 710.3 114.3 712 85.8C713.7 57.3 705.3 28.7 701.2 14.3L697 0L900 0L900 14.3C900 28.7 900 57.3 900 85.8C900 114.3 900 142.7 900 171.2C900 199.7 900 228.3 900 257C900 285.7 900 314.3 900 343C900 371.7 900 400.3 900 428.8C900 457.3 900 485.7 900 514.2C900 542.7 900 571.3 900 585.7L900 600Z"
        fill="#1c4579"></path>
    <path
        d="M739 600L735.3 585.7C731.7 571.3 724.3 542.7 724.7 514.2C725 485.7 733 457.3 734 428.8C735 400.3 729 371.7 731.3 343C733.7 314.3 744.3 285.7 752 257C759.7 228.3 764.3 199.7 766.8 171.2C769.3 142.7 769.7 114.3 759.8 85.8C750 57.3 730 28.7 720 14.3L710 0L900 0L900 14.3C900 28.7 900 57.3 900 85.8C900 114.3 900 142.7 900 171.2C900 199.7 900 228.3 900 257C900 285.7 900 314.3 900 343C900 371.7 900 400.3 900 428.8C900 457.3 900 485.7 900 514.2C900 542.7 900 571.3 900 585.7L900 600Z"
        fill="#265da2"></path>
    <path
        d="M815 600L805 585.7C795 571.3 775 542.7 771.5 514.2C768 485.7 781 457.3 788.5 428.8C796 400.3 798 371.7 797 343C796 314.3 792 285.7 789.7 257C787.3 228.3 786.7 199.7 781.5 171.2C776.3 142.7 766.7 114.3 763.8 85.8C761 57.3 765 28.7 767 14.3L769 0L900 0L900 14.3C900 28.7 900 57.3 900 85.8C900 114.3 900 142.7 900 171.2C900 199.7 900 228.3 900 257C900 285.7 900 314.3 900 343C900 371.7 900 400.3 900 428.8C900 457.3 900 485.7 900 514.2C900 542.7 900 571.3 900 585.7L900 600Z"
        fill="#2f77cc"></path>
    <path
        d="M846 600L841.7 585.7C837.3 571.3 828.7 542.7 825.2 514.2C821.7 485.7 823.3 457.3 828.8 428.8C834.3 400.3 843.7 371.7 849 343C854.3 314.3 855.7 285.7 855.2 257C854.7 228.3 852.3 199.7 847.3 171.2C842.3 142.7 834.7 114.3 836.5 85.8C838.3 57.3 849.7 28.7 855.3 14.3L861 0L900 0L900 14.3C900 28.7 900 57.3 900 85.8C900 114.3 900 142.7 900 171.2C900 199.7 900 228.3 900 257C900 285.7 900 314.3 900 343C900 371.7 900 400.3 900 428.8C900 457.3 900 485.7 900 514.2C900 542.7 900 571.3 900 585.7L900 600Z"
        fill="#3991f9"></path>
</svg>